<svg xmlns="http://www.w3.org/2000/svg" width="1600" height="1000" viewBox="0 0 1600 1000" role="img" aria-labelledby="title desc">
<title id="title">AI JobPilot Boss 投递分析占位截图</title><desc id="desc">依据前端代码绘制的 Boss 岗位分析、筛选和人工确认页面示意图。</desc>
<defs><linearGradient id="bg" x1="0" y1="0" x2="1" y2="1"><stop stop-color="#f8fbff"/><stop offset="1" stop-color="#eef4ff"/></linearGradient><linearGradient id="brand" x1="0" y1="0" x2="1" y2="1"><stop stop-color="#2563eb"/><stop offset="1" stop-color="#7c3aed"/></linearGradient><filter id="s"><feDropShadow dx="0" dy="12" stdDeviation="18" flood-color="#0f172a" flood-opacity=".08"/></filter><style>.t{font-family:Inter,"Noto Sans SC","Microsoft YaHei",Arial,sans-serif;fill:#0f172a}.m{fill:#64748b}.card{fill:#fff;stroke:#dbe5f2;stroke-width:1.5}.h{font-size:34px;font-weight:800}.sh{font-size:22px;font-weight:750}.sm{font-size:15px}.lb{font-size:16px;font-weight:650}.nav{font-size:17px;font-weight:600}.section{font-size:13px;font-weight:700;letter-spacing:1.2px;fill:#94a3b8}</style></defs>
<rect width="1600" height="1000" rx="30" fill="url(#bg)"/><rect x="24" y="24" width="1552" height="952" rx="26" fill="#fff" stroke="#dce6f3" filter="url(#s)"/>
<rect x="24" y="24" width="258" height="952" rx="26" fill="#fbfdff"/><path d="M282 24v952" stroke="#e2e8f0"/>
<rect x="54" y="58" width="50" height="50" rx="15" fill="url(#brand)"/><text x="79" y="91" text-anchor="middle" font-size="26" font-weight="800" fill="#fff" font-family="Microsoft YaHei">牛</text><text class="t" x="120" y="78" font-size="24" font-weight="800">投递牛马</text><text class="m" x="120" y="104" font-size="15" font-family="Microsoft YaHei">AI JobPilot 工作台</text>
<rect x="54" y="128" width="198" height="42" rx="12" fill="#ecfdf5" stroke="#bbf7d0"/><circle cx="76" cy="149" r="6" fill="#22c55e"/><text class="t sm" x="92" y="155">系统运行正常</text>
<text class="section" x="58" y="214">工作台</text><text class="t nav" x="98" y="252">首页</text><text class="section" x="58" y="310">求职资料</text><text class="t nav" x="98" y="348">AI 配置</text><text class="section" x="58" y="406">投递平台</text><text class="t nav" x="98" y="444">Boss 直聘</text><text class="t nav" x="98" y="490">智联招聘</text><text class="section" x="58" y="548">投递记录</text><rect x="48" y="562" width="210" height="48" rx="12" fill="#eff6ff"/><text x="98" y="593" font-size="17" font-weight="700" fill="#2563eb" font-family="Microsoft YaHei">Boss 分析</text><text class="t nav" x="98" y="646">智联分析</text><text class="section" x="58" y="704">系统设置</text><text class="t nav" x="98" y="742">环境配置</text><rect x="54" y="902" width="198" height="42" rx="12" fill="#f8fafc" stroke="#e2e8f0"/><text class="m" x="74" y="929" font-size="15">v1.3.0 · 本地运行</text>
<text class="t h" x="328" y="82">Boss 投递分析</text><text class="m" x="328" y="116" font-size="18">查看 AI 匹配结果，筛选岗位并在人工确认后执行投递</text><rect x="1394" y="62" width="136" height="44" rx="12" fill="#fff1f2" stroke="#fecdd3"/><text x="1462" y="90" text-anchor="middle" font-size="16" font-weight="700" fill="#be123c" font-family="Microsoft YaHei">清空分析</text>
<g><rect class="card" x="328" y="150" width="278" height="120" rx="18"/><text class="m sm" x="354" y="182">岗位总数</text><text class="t" x="354" y="231" font-size="40" font-weight="800">126</text><text x="466" y="228" font-size="14" fill="#16a34a" font-family="Microsoft YaHei">+18 今日</text><rect class="card" x="624" y="150" width="278" height="120" rx="18"/><text class="m sm" x="650" y="182">待确认</text><text class="t" x="650" y="231" font-size="40" font-weight="800">18</text><text x="748" y="228" font-size="14" fill="#0e7490" font-family="Microsoft YaHei">AI 推荐</text><rect class="card" x="920" y="150" width="278" height="120" rx="18"/><text class="m sm" x="946" y="182">已投递</text><text class="t" x="946" y="231" font-size="40" font-weight="800">42</text><text x="1044" y="228" font-size="14" fill="#047857" font-family="Microsoft YaHei">33.3%</text><rect class="card" x="1216" y="150" width="314" height="120" rx="18"/><text class="m sm" x="1242" y="182">平均匹配分</text><text class="t" x="1242" y="231" font-size="40" font-weight="800">82.6</text><text x="1360" y="228" font-size="14" fill="#7c3aed" font-family="Microsoft YaHei">阈值 80</text></g>
<rect class="card" x="328" y="296" width="1202" height="600" rx="20" filter="url(#s)"/><text class="t sh" x="360" y="338">岗位数据</text><text class="m sm" x="360" y="366">当前 Boss 岗位库明细</text>
<rect x="360" y="394" width="190" height="44" rx="11" fill="#fff" stroke="#cbd5e1"/><text class="m sm" x="380" y="422">搜索岗位 / 公司</text><rect x="564" y="394" width="136" height="44" rx="11" fill="#fff" stroke="#cbd5e1"/><text class="t sm" x="632" y="422" text-anchor="middle">状态：待确认</text><rect x="714" y="394" width="122" height="44" rx="11" fill="#fff" stroke="#cbd5e1"/><text class="t sm" x="775" y="422" text-anchor="middle">分数 ≥ 80</text><rect x="850" y="394" width="112" height="44" rx="11" fill="#eff6ff" stroke="#bfdbfe"/><text x="906" y="422" text-anchor="middle" font-size="15" font-weight="700" fill="#2563eb" font-family="Microsoft YaHei">应用筛选</text><rect x="1160" y="394" width="108" height="44" rx="11" fill="#fff" stroke="#cbd5e1"/><text class="t sm" x="1214" y="422" text-anchor="middle">导出 CSV</text><rect x="1282" y="394" width="216" height="44" rx="11" fill="#2563eb"/><text x="1390" y="422" text-anchor="middle" font-size="15" font-weight="700" fill="#fff" font-family="Microsoft YaHei">批量确认 AI 推荐</text>
<g font-family="Microsoft YaHei"><rect x="360" y="462" width="1138" height="112" rx="16" fill="#f8fbff" stroke="#dbeafe"/><rect x="382" y="484" width="74" height="30" rx="15" fill="#dcfce7"/><text x="419" y="505" text-anchor="middle" font-size="13" fill="#166534">推荐</text><text class="t" x="476" y="500" font-size="18" font-weight="750">AI 产品运营</text><text class="m" x="476" y="528" font-size="14">某头部科技公司 · 深圳 · 20K–30K · 3–5年</text><rect x="1002" y="484" width="76" height="48" rx="12" fill="#ede9fe"/><text x="1040" y="505" text-anchor="middle" font-size="12" fill="#6d28d9">匹配分</text><text x="1040" y="525" text-anchor="middle" font-size="20" font-weight="800" fill="#5b21b6">92</text><text x="1100" y="501" font-size="14" fill="#475569">优势：AI 场景落地、知识库运营、B 端协作</text><text x="1100" y="526" font-size="14" fill="#b45309">风险：产品指标经验需在面试中补充</text><rect x="1360" y="486" width="116" height="40" rx="10" fill="#2563eb"/><text x="1418" y="512" text-anchor="middle" font-size="14" font-weight="700" fill="#fff">确认投递</text>
<rect x="360" y="590" width="1138" height="112" rx="16" fill="#fff" stroke="#e2e8f0"/><rect x="382" y="612" width="74" height="30" rx="15" fill="#dcfce7"/><text x="419" y="633" text-anchor="middle" font-size="13" fill="#166534">推荐</text><text class="t" x="476" y="628" font-size="18" font-weight="750">大模型应用运营</text><text class="m" x="476" y="656" font-size="14">某 SaaS 企业 · 深圳 · 18K–25K · 3–5年</text><rect x="1002" y="612" width="76" height="48" rx="12" fill="#ede9fe"/><text x="1040" y="633" text-anchor="middle" font-size="12" fill="#6d28d9">匹配分</text><text x="1040" y="653" text-anchor="middle" font-size="20" font-weight="800" fill="#5b21b6">87</text><text x="1100" y="629" font-size="14" fill="#475569">优势：Prompt、RAG、流程产品化经验匹配</text><text x="1100" y="654" font-size="14" fill="#b45309">风险：需确认是否接受外包团队背景</text><rect x="1360" y="614" width="116" height="40" rx="10" fill="#2563eb"/><text x="1418" y="640" text-anchor="middle" font-size="14" font-weight="700" fill="#fff">确认投递</text>
<rect x="360" y="718" width="1138" height="112" rx="16" fill="#fff" stroke="#e2e8f0"/><rect x="382" y="740" width="88" height="30" rx="15" fill="#f1f5f9"/><text x="426" y="761" text-anchor="middle" font-size="13" fill="#475569">人工判断</text><text class="t" x="490" y="756" font-size="18" font-weight="750">SaaS 产品运营</text><text class="m" x="490" y="784" font-size="14">某企业服务公司 · 深圳 · 15K–22K · 1–3年</text><rect x="1002" y="740" width="76" height="48" rx="12" fill="#f1f5f9"/><text x="1040" y="761" text-anchor="middle" font-size="12" fill="#64748b">匹配分</text><text x="1040" y="781" text-anchor="middle" font-size="20" font-weight="800" fill="#334155">76</text><text x="1100" y="757" font-size="14" fill="#475569">经验接近，但岗位更偏增长与商业化</text><text x="1100" y="782" font-size="14" fill="#64748b">可手动选择后批量确认</text><rect x="1360" y="742" width="116" height="40" rx="10" fill="#fff" stroke="#cbd5e1"/><text class="t" x="1418" y="768" text-anchor="middle" font-size="14" font-weight="700">查看详情</text></g>
<text class="m sm" x="360" y="870">显示 1–3 / 18 个待确认岗位</text><rect x="1354" y="848" width="52" height="32" rx="9" fill="#eff6ff" stroke="#bfdbfe"/><text x="1380" y="870" text-anchor="middle" font-size="14" fill="#2563eb">1</text><rect x="1416" y="848" width="82" height="32" rx="9" fill="#fff" stroke="#cbd5e1"/><text class="t" x="1457" y="870" text-anchor="middle" font-size="14">下一页</text>
<rect x="1176" y="922" width="354" height="34" rx="17" fill="#0f172a" opacity=".86"/><text x="1353" y="944" text-anchor="middle" font-size="14" fill="#fff" font-family="Microsoft YaHei">占位示意图 · 回家后请替换为真实截图</text>
</svg>